<svg width="20" height="20" viewBox="0 0 20 20" fill="none" xmlns="http://www.w3.org/2000/svg">
<path d="M10.0002 2.45435C4.47737 2.45435 0 6.97421 0 12.5498C0 15.573 1.30469 17.5447 1.30469 17.5447L18.6915 17.5456C18.6915 17.5456 20 15.3907 20 12.5496C20 6.97421 15.5226 2.45435 10.0002 2.45435ZM17.9581 16.3157L2.07397 16.3088C2.07397 16.3088 1.22758 14.7059 1.22758 12.5179C1.22758 7.63116 5.17016 3.66934 10.0337 3.66934C14.8971 3.66934 18.8399 7.63095 18.8399 12.5179C18.8401 14.7306 17.9581 16.3157 17.9581 16.3157Z" fill="#EF1E25"/>
<path d="M12.8261 5.13512L12.7006 5.13491L10.0332 10.3618L7.26974 5.09027L3.48621 14.6134H2.50842V15.3783H7.86509V14.6134H6.80222L7.86509 11.6371L10.0332 15.3783L12.1163 11.6371L13.179 14.6134H12.1163V15.3783H17.4303V14.6134H16.5097L12.8261 5.13512Z" fill="#EF1E25"/>
</svg>
